<svg xmlns="http://www.w3.org/2000/svg" viewBox="0 0 50 50" width="50px" height="50px">
    <path d="M25,2C12.3,2,2,12.3,2,25c0,10.2,6.6,18.8,15.8,21.9c1.2,0.2,1.5-0.5,1.5-1.1c0-0.5,0-2,0-3.9c-6.4,1.4-7.7-3.1-7.7-3.1c-1-2.7-2.5-3.4-2.5-3.4c-2.1-1.4,0.2-1.4,0.2-1.4c2.3,0.2,3.5,2.4,3.5,2.4c2.1,3.6,5.4,2.5,6.7,1.9c0.2-1.5,0.8-2.5,1.5-3.1c-5.1-0.6-10.4-2.6-10.4-11.4c0-2.5,0.9-4.5,2.4-6.1c-0.2-0.6-1-2.9,0.2-6c0,0,1.9-0.6,6.2,2.3c1.8-0.5,3.8-0.8,5.7-0.8c1.9,0,3.9,0.3,5.7,0.8c4.3-2.9,6.2-2.3,6.2-2.3c1.3,3.1,0.5,5.4,0.2,6c1.5,1.6,2.4,3.6,2.4,6.1c0,8.8-5.3,10.8-10.4,11.4c0.8,0.7,1.6,2.1,1.6,4.3c0,3.1,0,5.6,0,6.1c0,0.6,0.4,1.3,1.6,1.1C41.4,43.8,48,35.2,48,25C48,12.3,37.7,2,25,2z" fill="#ffffff"/>
</svg>