<svg xmlns="http://www.w3.org/2000/svg" viewBox="0 0 50 50" width="50px" height="50px">
    <path d="M 16 3 C 8.83 3 3 8.83 3 16 L 3 34 C 3 41.17 8.83 47 16 47 L 34 47 C 41.17 47 47 41.17 47 34 L 47 16 C 47 8.83 41.17 3 34 3 L 16 3 z M 37 11 A 2 2 0 0 1 39 13 A 2 2 0 0 1 37 15 A 2 2 0 0 1 35 13 A 2 2 0 0 1 37 11 z M 25 14 C 31.07 14 36 18.93 36 25 C 36 31.07 31.07 36 25 36 C 18.93 36 14 31.07 14 25 C 14 18.93 18.93 14 25 14 z M 25 18 C 21.13 18 18 21.13 18 25 C 18 28.87 21.13 32 25 32 C 28.87 32 32 28.87 32 25 C 32 21.13 28.87 18 25 18 z" fill-rule="evenodd" fill="#000000"/>
</svg>